<?xml version="1.0" encoding="UTF-8" standalone="no" ?>
<!DOCTYPE svg PUBLIC "-//W3C//DTD SVG 1.1//EN" "http://www.w3.org/Graphics/SVG/1.1/DTD/svg11.dtd">
<svg xmlns="http://www.w3.org/2000/svg" xmlns:xlink="http://www.w3.org/1999/xlink" version="1.1" width="1080" height="1080" viewBox="0 0 1080 1080" xml:space="preserve">
<desc>Created with Fabric.js 5.2.4</desc>
<defs>
</defs>
<g transform="matrix(1 0 0 1 540 540)" id="39ff3124-a192-49d4-a9a0-b72eb81b1a2d"  >
<rect style="stroke: none; stroke-width: 1; stroke-dasharray: none; stroke-linecap: butt; stroke-dashoffset: 0; stroke-linejoin: miter; stroke-miterlimit: 4; fill: rgb(255,255,255); fill-rule: nonzero; opacity: 1; visibility: hidden;" vector-effect="non-scaling-stroke"  x="-540" y="-540" rx="0" ry="0" width="1080" height="1080" />
</g>
<g transform="matrix(1 0 0 1 540 540)" id="6af71609-0c20-42ba-a189-65f3036dbf8a"  >
</g>
<g transform="matrix(45 0 0 45 540 540)"  >
<path style="stroke: none; stroke-width: 1; stroke-dasharray: none; stroke-linecap: butt; stroke-dashoffset: 0; stroke-linejoin: miter; stroke-miterlimit: 4; fill: rgb(0,0,0); fill-rule: nonzero; opacity: 1;"  transform=" translate(-12, -12)" d="M 3 17 L 3 19 L 9 19 L 9 17 L 3 17 z M 3 5 L 3 7 L 13 7 L 13 5 L 3 5 z M 13 21 L 13 19 L 21 19 L 21 17 L 13 17 L 13 15 L 11 15 L 11 21 L 13 21 z M 7 9 L 7 11 L 3 11 L 3 13 L 7 13 L 7 15 L 9 15 L 9 9 L 7 9 z M 21 13 L 21 11 L 11 11 L 11 13 L 21 13 z M 15 9 L 17 9 L 17 7 L 21 7 L 21 5 L 17 5 L 17 3 L 15 3 L 15 9 z" stroke-linecap="round" />
</g>
</svg>